<svg xmlns="http://www.w3.org/2000/svg" style="display:none">
  <!-- 首页 -->
  <symbol id="icon-home" viewBox="0 0 24 24" fill="currentColor">
    <path d="M3 9.5L12 3l9 6.5V21a1 1 0 0 1-1 1h-5v-6H9v6H4a1 1 0 0 1-1-1V9.5z"/>
  </symbol>

  <!-- 收藏 -->
  <symbol id="icon-star" viewBox="0 0 24 24" fill="currentColor">
    <path d="M12 .587l3.668 7.568L24 9.748l-6 5.857 1.416 8.261L12 19.771l-7.416 4.095L6 15.605 0 9.748l8.332-1.593z"/>
  </symbol>

  <!-- 我的 -->
  <symbol id="icon-user" viewBox="0 0 24 24" fill="currentColor">
    <path d="M12 12c2.7 0 4.8-2.1 4.8-4.8S14.7 2.4 12 2.4 7.2 4.5 7.2 7.2 9.3 12 12 12zm0 2.4c-3.2 0-9.6 1.6-9.6 4.8v2.4h19.2v-2.4c0-3.2-6.4-4.8-9.6-4.8z"/>
  </symbol>

  <!-- 设置 -->
  <symbol id="icon-settings" viewBox="0 0 24 24" fill="currentColor">
    <path d="M19.14 12.936c.036-.304.06-.612.06-.936s-.024-.632-.07-.936l2.03-1.578a.484.484 0 0 0 .112-.61l-1.922-3.324a.487.487 0 0 0-.592-.21l-2.39.96a7.947 7.947 0 0 0-1.614-.936l-.364-2.54A.482.482 0 0 0 13.87 2h-3.74a.482.482 0 0 0-.48.406l-.364 2.54c-.58.228-1.12.544-1.614.936l-2.39-.96a.487.487 0 0 0-.592.21L2.768 8.876a.484.484 0 0 0 .112.61l2.03 1.578c-.046.304-.07.612-.07.936s.024.632.07.936l-2.03 1.578a.484.484 0 0 0-.112.61l1.922 3.324c.134.232.41.312.592.21l2.39-.96c.494.392 1.034.708 1.614.936l.364 2.54c.036.232.24.406.48.406h3.74c.24 0 .444-.174.48-.406l.364-2.54c.58-.228 1.12-.544 1.614-.936l2.39.96c.182.102.458.022.592-.21l1.922-3.324a.484.484 0 0 0-.112-.61l-2.03-1.578zM12 15.6a3.6 3.6 0 1 1 0-7.2 3.6 3.6 0 0 1 0 7.2z"/>
  </symbol>
</svg>
