<svg xmlns="http://www.w3.org/2000/svg" style="display: none;">
  <!-- 首页 -->
  <symbol id="icon-home" viewBox="0 0 24 24" fill="currentColor">
    <path d="M3 9.5l9-7 9 7V20a1 1 0 0 1-1 1h-5v-6H9v6H4a1 1 0 0 1-1-1V9.5z"/>
  </symbol>

  <!-- 收藏 -->
  <symbol id="icon-star" viewBox="0 0 24 24" fill="currentColor">
    <path d="M12 17.3l6.18 3.7-1.64-7.03L22 9.24l-7.19-.61L12 2 9.19 8.63 2 9.24l5.46 4.73L5.82 21z"/>
  </symbol>

  <!-- 我的 -->
  <symbol id="icon-user" viewBox="0 0 24 24" fill="currentColor">
    <path d="M12 12c2.67 0 8 1.34 8 4v2H4v-2c0-2.66 5.33-4 8-4zm0-2a4 4 0 1 0 0-8 4 4 0 0 0 0 8z"/>
  </symbol>

  <!-- 设置 -->
  <symbol id="icon-settings" viewBox="0 0 24 24" fill="currentColor">
    <path d="M19.14,12.94a7.14,7.14,0,0,0,0-1.88l2.11-1.65a.5.5,0,0,0,.12-.64l-2-3.46a.5.5,0,0,0-.6-.22l-2.49,1a7,7,0,0,0-1.62-.94l-.38-2.65A.5.5,0,0,0,13.8,3H10.2a.5.5,0,0,0-.5.42L9.32,6.07a7,7,0,0,0-1.62.94l-2.49-1a.5.5,0,0,0-.6.22l-2,3.46a.5.5,0,0,0,.12.64l2.11,1.65a7.14,7.14,0,0,0,0,1.88L2.73,14.59a.5.5,0,0,0-.12.64l2,3.46a.5.5,0,0,0,.6.22l2.49-1a7,7,0,0,0,1.62.94l.38,2.65a.5.5,0,0,0,.5.42h3.6a.5.5,0,0,0,.5-.42l.38-2.65a7,7,0,0,0,1.62-.94l2.49,1a.5.5,0,0,0,.6-.22l2-3.46a.5.5,0,0,0-.12-.64ZM12,15.5A3.5,3.5,0,1,1,15.5,12,3.5,3.5,0,0,1,12,15.5Z"/>
  </symbol>
</svg>
